<svg width="177" height="38" viewBox="0 0 177 38" fill="white" xmlns="http://www.w3.org/2000/svg">
<path d="M17.8211 37.9987C28.3811 37.9987 34.0393 33.1318 35.0769 23.3045H26.7317V29.9496H8.67437V8.04915L26.7317 8.09655V13.6655H34.793C33.7566 4.07134 27.7693 0 17.8211 0C4.24361 0 0 8.65768 0 19C0 29.3423 4.24361 38 17.8211 38"/>
<path d="M104.169 19.9491C106.856 18.1412 108.152 15.4287 108.152 12.22C108.152 6.3433 104.03 1.46154 95.4138 1.46154H78.9229V36.5385H86.15V23.2482H100.603V36.5385H108.154V28.5829C108.154 24.3334 106.996 21.5306 104.17 19.9491H104.169ZM100.603 17.2824H86.15V7.83444H100.603V17.2824Z"/>
<path d="M156.558 7.88022H176.846V1.46154H149.077V10.7734C149.077 13.9834 150.42 16.6946 153.201 18.5025C150.276 20.0853 149.077 22.8869 149.077 27.1363V36.5385H176.846V30.1198H156.558V21.4861H175.312V15.519H156.558V7.88022Z"/>
<path d="M122.833 36.5385H132.984L144.693 1.46154H137.138L127.932 29.6681L118.679 1.46154H111.077L122.833 36.5385Z"/>
<path d="M56.2211 37.9987C66.2444 37.9987 71.6152 34.0921 71.6152 25.3139V1.46154H64.1334V30.0484H48.4046V1.46154H40.9229V25.3151C40.9229 33.6795 45.7186 38 56.2211 38"/>
</svg>
